<?xml version="1.0" encoding="UTF-8"?>
<svg xmlns="http://www.w3.org/2000/svg" xmlns:xlink="http://www.w3.org/1999/xlink" width="150px" height="100px" viewBox="0 0 150 100" version="1.1">
<g id="surface1">
<rect x="0" y="0" width="150" height="100" style="fill:rgb(100%,100%,100%);fill-opacity:1;stroke:none;"/>
<path style=" stroke:none;fill-rule:evenodd;fill:rgb(15.686275%,32.54902%,61.176471%);fill-opacity:1;" d="M 15.804688 41.929688 L 18.328125 41.929688 L 18.328125 40.117188 L 10.234375 40.117188 L 10.234375 41.929688 L 12.757812 41.929688 L 12.757812 48.355469 L 15.804688 48.355469 Z M 28.601562 40.117188 L 28.601562 44.453125 C 28.601562 45.527344 28.492188 46.695312 26.53125 46.695312 C 24.570312 46.695312 24.460938 45.527344 24.460938 44.453125 L 24.460938 40.117188 L 21.414062 40.117188 L 21.414062 44.75 C 21.414062 45.808594 21.476562 46.859375 22.640625 47.65625 C 23.621094 48.335938 25.164062 48.574219 26.53125 48.574219 C 27.902344 48.574219 29.441406 48.335938 30.421875 47.65625 C 31.589844 46.859375 31.652344 45.808594 31.652344 44.75 L 31.652344 40.117188 Z M 41.71875 44.980469 C 43.386719 44.773438 44.285156 43.789062 44.285156 42.652344 C 44.285156 40.890625 42.527344 40.117188 40.210938 40.117188 L 35.652344 40.117188 L 35.652344 48.359375 L 38.703125 48.359375 L 38.703125 45.1875 L 38.734375 45.1875 L 41.609375 48.355469 L 45.40625 48.355469 Z M 38.703125 41.753906 L 38.996094 41.753906 C 39.992188 41.753906 41.113281 41.886719 41.113281 42.78125 C 41.113281 43.679688 39.992188 43.808594 38.996094 43.808594 L 38.703125 43.808594 Z M 51.375 43.515625 L 51.34375 43.515625 L 51.34375 40.117188 L 48.292969 40.117188 L 48.292969 48.355469 L 51.34375 48.355469 L 51.34375 44.78125 L 51.375 44.78125 L 55.308594 48.355469 L 59.261719 48.355469 L 54.171875 44.015625 L 58.839844 40.117188 L 55.058594 40.117188 Z M 65.207031 40.117188 L 62.15625 40.117188 L 62.15625 48.355469 L 65.207031 48.355469 Z M 76.871094 40.574219 C 75.832031 40.160156 74.382812 39.894531 73.199219 39.894531 C 70.847656 39.894531 69.15625 40.988281 69.15625 42.660156 C 69.15625 44.257812 70.414062 44.605469 72.328125 44.988281 C 72.980469 45.121094 74.179688 45.328125 74.179688 45.929688 C 74.179688 46.507812 73.417969 46.761719 72.703125 46.761719 C 71.660156 46.761719 70.757812 46.378906 69.996094 45.90625 L 68.6875 47.632812 C 69.886719 48.226562 71.332031 48.574219 72.8125 48.574219 C 73.996094 48.574219 75.222656 48.34375 76.144531 47.796875 C 77.074219 47.242188 77.355469 46.398438 77.355469 45.578125 C 77.355469 44.246094 76.09375 43.667969 74.460938 43.328125 L 73.683594 43.164062 C 73.152344 43.042969 72.328125 42.859375 72.328125 42.378906 C 72.328125 41.917969 73.078125 41.6875 73.636719 41.6875 C 74.382812 41.6875 75.097656 41.90625 75.660156 42.234375 Z M 83.90625 43.296875 L 83.90625 40.117188 L 80.855469 40.117188 L 80.855469 48.355469 L 83.90625 48.355469 L 83.90625 44.980469 L 88.308594 44.980469 L 88.308594 48.355469 L 91.359375 48.355469 L 91.359375 40.117188 L 88.308594 40.117188 L 88.308594 43.296875 Z M 17.648438 58.558594 L 18.414062 59.988281 L 21.664062 59.988281 L 17.246094 51.746094 L 13.914062 51.746094 L 9.40625 59.988281 L 12.640625 59.988281 L 13.449219 58.558594 Z M 16.824219 56.917969 L 14.289062 56.917969 L 15.550781 54.292969 L 15.582031 54.292969 Z M 26.949219 51.746094 L 23.898438 51.746094 L 23.898438 59.988281 L 26.949219 59.988281 Z M 36.667969 56.613281 C 38.335938 56.40625 39.238281 55.421875 39.238281 54.285156 C 39.238281 52.523438 37.476562 51.746094 35.160156 51.746094 L 30.601562 51.746094 L 30.601562 59.988281 L 33.652344 59.988281 L 33.652344 56.820312 L 33.683594 56.820312 L 36.5625 59.988281 L 40.359375 59.988281 Z M 33.652344 53.386719 L 33.949219 53.386719 C 34.945312 53.386719 36.0625 53.519531 36.0625 54.414062 C 36.0625 55.3125 34.945312 55.441406 33.949219 55.441406 L 33.652344 55.441406 Z M 46.007812 51.746094 L 42.957031 51.746094 L 42.957031 59.988281 L 49.664062 59.988281 L 49.664062 58.175781 L 46.007812 58.175781 Z M 55.460938 51.746094 L 52.410156 51.746094 L 52.410156 59.988281 L 55.460938 59.988281 Z M 59.253906 59.988281 L 62.304688 59.988281 L 62.304688 54.941406 L 62.335938 54.941406 L 67.921875 59.988281 L 70.972656 59.988281 L 70.972656 51.746094 L 67.921875 51.746094 L 67.921875 56.789062 L 67.890625 56.789062 L 62.304688 51.746094 L 59.253906 51.746094 Z M 81.582031 53.5625 L 81.582031 51.746094 L 74.910156 51.746094 L 74.910156 59.988281 L 81.582031 59.988281 L 81.582031 58.175781 L 77.957031 58.175781 L 77.957031 56.753906 L 81.398438 56.753906 L 81.398438 54.941406 L 77.957031 54.941406 L 77.957031 53.5625 Z M 92.738281 52.207031 C 91.695312 51.792969 90.25 51.53125 89.066406 51.53125 C 86.714844 51.53125 85.019531 52.621094 85.019531 54.292969 C 85.019531 55.890625 86.28125 56.242188 88.195312 56.621094 C 88.847656 56.753906 90.046875 56.960938 90.046875 57.5625 C 90.046875 58.140625 89.285156 58.394531 88.566406 58.394531 C 87.527344 58.394531 86.625 58.011719 85.863281 57.542969 L 84.554688 59.269531 C 85.753906 59.859375 87.199219 60.207031 88.675781 60.207031 C 89.859375 60.207031 91.089844 59.980469 92.007812 59.433594 C 92.941406 58.875 93.222656 58.03125 93.222656 57.214844 C 93.222656 55.878906 91.957031 55.300781 90.328125 54.960938 L 89.546875 54.796875 C 89.019531 54.679688 88.195312 54.492188 88.195312 54.011719 C 88.195312 53.550781 88.941406 53.320312 89.503906 53.320312 C 90.25 53.320312 90.964844 53.539062 91.527344 53.867188 Z M 92.738281 52.207031 "/>
<path style="fill:none;stroke-width:2.188;stroke-linecap:butt;stroke-linejoin:miter;stroke:rgb(81.176471%,25.098039%,21.568627%);stroke-opacity:1;stroke-miterlimit:2.613;" d="M 134.397113 96.378 C 134.397113 82.915198 144.752728 71.997378 157.532853 71.997378 C 170.312977 71.997378 180.668592 82.915198 180.668592 96.378 C 180.668592 109.840802 170.312977 120.758622 157.532853 120.758622 C 144.757748 120.758622 134.397113 109.840802 134.397113 96.378 Z M 134.397113 96.378 " transform="matrix(0.778186,0,0,0.518791,0,0)"/>
<path style=" stroke:none;fill-rule:evenodd;fill:rgb(81.176471%,25.098039%,21.568627%);fill-opacity:1;" d="M 128.027344 47.226562 C 127.199219 43.308594 122.351562 41.371094 119.324219 40.210938 C 116.511719 39.136719 113.996094 38.648438 113.9375 38.773438 C 117.132812 40.527344 119.183594 43.253906 119.183594 46.320312 C 119.183594 51.351562 113.660156 55.472656 106.648438 55.859375 L 107.089844 56.324219 C 116.070312 55.371094 140.105469 52.328125 140.105469 52.328125 L 140.167969 51.972656 L 125.585938 51.632812 C 127.195312 50.472656 128.296875 48.503906 128.027344 47.226562 Z M 128.027344 47.226562 "/>
</g>
</svg>
